<svg width="25" height="24" viewBox="0 0 25 24" fill="none" xmlns="http://www.w3.org/2000/svg">
    <path
        d="M11.5179 5.26479H6.60717C6.08621 5.26479 5.58658 5.47174 5.21821 5.84012C4.84983 6.20849 4.64288 6.70812 4.64288 7.22908V18.0326C4.64288 18.5536 4.84983 19.0532 5.21821 19.4216C5.58658 19.79 6.08621 19.9969 6.60717 19.9969H17.4107C17.9317 19.9969 18.4313 19.79 18.7997 19.4216C19.1681 19.0532 19.375 18.5536 19.375 18.0326V13.1219M17.9863 3.87604C18.1675 3.68843 18.3842 3.53879 18.6239 3.43584C18.8635 3.33289 19.1213 3.27871 19.3821 3.27644C19.6429 3.27417 19.9016 3.32387 20.143 3.42264C20.3844 3.52141 20.6037 3.66726 20.7881 3.85169C20.9726 4.03613 21.1184 4.25544 21.2172 4.49685C21.3159 4.73825 21.3656 4.99691 21.3634 5.25772C21.3611 5.51854 21.3069 5.77629 21.204 6.01594C21.101 6.25559 20.9514 6.47234 20.7638 6.65354L12.3311 15.0862H9.5536V12.3087L17.9863 3.87604Z"
        stroke="white"
        stroke-opacity="0.78"
        stroke-width="2"
        stroke-linecap="round"
        stroke-linejoin="round"
    />
</svg>

